<svg width="20" height="24" viewBox="0 0 20 24" fill="none" xmlns="http://www.w3.org/2000/svg">
<g clip-path="url(#clip0)">
<path d="M19.9322 20.64C19.4029 18.4049 18.1348 16.4137 16.3331 14.9889C14.5315 13.5641 12.3017 12.7889 10.0047 12.7889C7.70778 12.7889 5.47802 13.5641 3.67637 14.9889C1.87472 16.4137 0.606607 18.4049 0.0772896 20.64C-0.0167184 21.0378 -0.0190619 21.4518 0.0704361 21.8507C0.159934 22.2495 0.338932 22.6229 0.5939 22.9424C0.855517 23.2731 1.18878 23.5401 1.56857 23.7233C1.94836 23.9065 2.36478 24.0011 2.78644 24H17.2149C17.637 24.0012 18.0538 23.9062 18.4338 23.7223C18.8137 23.5383 19.1467 23.2702 19.4075 22.9383C19.6635 22.6201 19.8438 22.2478 19.9347 21.8496C20.0256 21.4514 20.0248 21.0378 19.9322 20.64Z" fill="black"/>
<path d="M9.99871 10.8285C11.0695 10.8285 12.1163 10.5109 13.0067 9.91601C13.8971 9.32109 14.591 8.4755 15.0008 7.48618C15.4106 6.49686 15.5178 5.40823 15.3089 4.35797C15.1 3.30771 14.5843 2.34299 13.8272 1.5858C13.07 0.828601 12.1052 0.312945 11.055 0.104035C10.0047 -0.104874 8.91609 0.00234589 7.92677 0.412137C6.93745 0.821927 6.09186 1.51588 5.49694 2.40625C4.90201 3.29662 4.58447 4.3434 4.58447 5.41424C4.58555 6.84985 5.15632 8.22636 6.17146 9.24149C7.18659 10.2566 8.56309 10.8274 9.99871 10.8285V10.8285Z" fill="black"/>
</g>
<defs>
<clipPath id="clip0">
<rect width="19.9973" height="24" fill="white"/>
</clipPath>
</defs>
</svg>
