<svg width="34" height="34" viewBox="0 0 34 34" fill="none" xmlns="http://www.w3.org/2000/svg">
<path fill-rule="evenodd" clip-rule="evenodd" d="M5 0C2.23858 0 0 2.23858 0 5V29C0 31.7614 2.23858 34 5 34H29C31.7614 34 34 31.7614 34 29V5C34 2.23858 31.7614 0 29 0H5ZM29.0607 10.0607C29.6464 9.47487 29.6464 8.52513 29.0607 7.93934C28.4749 7.35355 27.5251 7.35355 26.9393 7.93934L12.875 22.0037L7.06066 16.1893C6.47487 15.6036 5.52513 15.6036 4.93934 16.1893C4.35355 16.7751 4.35355 17.7249 4.93934 18.3107L11.8143 25.1857L12.875 26.2463L13.9357 25.1857L29.0607 10.0607Z" fill="#2F5DFB"/>
</svg>
