<svg width="34" height="34" viewBox="0 0 34 34" fill="none" xmlns="http://www.w3.org/2000/svg">
<path fill-rule="evenodd" clip-rule="evenodd" d="M5 0C2.23858 0 0 2.23858 0 5V29C0 31.7614 2.23858 34 5 34H29C31.7614 34 34 31.7614 34 29V5C34 2.23858 31.7614 0 29 0H5ZM16.1458 25.744H6V9H9.34427V22.942H16.1458V25.744ZM23.7745 25.744H19.9331L15.6171 13.09H18.9614L20.8143 19.3944C21.0685 20.3263 21.3227 21.2964 21.5768 22.2664L21.5769 22.2668L21.5773 22.2682C21.6619 22.5912 21.7465 22.9142 21.8312 23.2358H21.9441C22.0289 22.9138 22.1136 22.5904 22.1983 22.267C22.4526 21.2967 22.7068 20.3265 22.961 19.3944L24.8139 13.09H28L23.7745 25.744Z" fill="#1BB778"/>
</svg>
