<svg id="레이어_1" data-name="레이어 1" xmlns="http://www.w3.org/2000/svg" viewBox="0 0 180 180"><defs><style>.cls-1{fill:#fbfbfb;}.cls-2{fill:#456eff;}</style></defs><g id="레이어_3" data-name="레이어 3"><rect class="cls-1" width="180" height="180"/></g><g id="레이어_5" data-name="레이어 5"><rect class="cls-2" x="56.29" y="99.51" width="58.92" height="4.5" rx="2.24" transform="translate(-46.84 90.16) rotate(-44.96)"/><path class="cls-2" d="M99.06,73.43a2.24,2.24,0,0,0-3.17,0h0L57.38,111.88a2.26,2.26,0,0,0,0,3.19h0a2.23,2.23,0,0,0,3.17,0h0L99.06,76.61A2.26,2.26,0,0,0,99.06,73.43Z" transform="translate(0 -0.19)"/><path class="cls-2" d="M90,.19A89.78,89.78,0,0,0,9.89,130.58H42.42a2.12,2.12,0,0,1,0,4.23H12.18A89.8,89.8,0,1,0,90,.19Zm27.47,83.62L72.24,129a2.34,2.34,0,0,1-1.15.61L48.4,134.23a2.25,2.25,0,0,1-2.65-1.77,2.17,2.17,0,0,1,0-.88l4.58-22.69a2.3,2.3,0,0,1,.61-1.15L96.17,62.59a2.28,2.28,0,0,1,3.19,0l18.1,18.1A2.27,2.27,0,0,1,117.46,83.81ZM133.3,68l-7.36,7.37a2.23,2.23,0,0,1-3.17,0h0L104.61,57.21a2.23,2.23,0,0,1,0-3.17h0L112,46.68a2.24,2.24,0,0,1,3.15,0l0,0,18.12,18.11a2.23,2.23,0,0,1,.07,3.15Z" transform="translate(0 -0.19)"/></g></svg>