<svg width="24" height="24" viewBox="0 0 24 24" fill="none" xmlns="http://www.w3.org/2000/svg">
<path d="M4 20C4 21.1046 3.10457 22 2 22V22C0.895431 22 0 21.1046 0 20V20C0 18.8954 0.895431 18 2 18V18C3.10457 18 4 18.8954 4 20V20ZM4 12C4 10.8954 3.10457 10 2 10V10C0.895431 10 0 10.8954 0 12V12C0 13.1046 0.895431 14 2 14V14C3.10457 14 4 13.1046 4 12V12ZM4 4C4 2.89543 3.10457 2 2 2V2C0.895431 2 0 2.89543 0 4V4C0 5.10457 0.895431 6 2 6V6C3.10457 6 4 5.10457 4 4V4ZM9 2C7.89543 2 7 2.89543 7 4V4C7 5.10457 7.89543 6 9 6H22C23.1046 6 24 5.10457 24 4V4C24 2.89543 23.1046 2 22 2H9ZM7 12C7 13.1046 7.89543 14 9 14H22C23.1046 14 24 13.1046 24 12V12C24 10.8954 23.1046 10 22 10H9C7.89543 10 7 10.8954 7 12V12ZM7 20C7 21.1046 7.89543 22 9 22H22C23.1046 22 24 21.1046 24 20V20C24 18.8954 23.1046 18 22 18H9C7.89543 18 7 18.8954 7 20V20Z" fill="black"/>
</svg>
