<svg width="60" height="60" viewBox="0 0 60 60" fill="none" xmlns="http://www.w3.org/2000/svg">
<g clip-path="url(#clip0)">
<path d="M34.4707 26.9157L21.6301 39.7384C21.3384 40.0298 21.338 40.5026 21.6294 40.7944L21.6341 40.7991C21.9255 41.0909 22.3983 41.0912 22.6901 40.7998L35.5307 27.9771C35.8225 27.6858 35.8228 27.213 35.5314 26.9212L35.5267 26.9165C35.2353 26.6247 34.7625 26.6244 34.4707 26.9157Z" fill="#FBFBFB"/>
<path d="M33.0199 24.4133C32.9506 24.3439 32.8682 24.2888 32.7776 24.2512C32.6869 24.2136 32.5898 24.1943 32.4916 24.1943C32.3935 24.1943 32.2963 24.2136 32.2056 24.2512C32.115 24.2888 32.0326 24.3439 31.9633 24.4133L19.1266 37.23C18.986 37.3712 18.907 37.5624 18.907 37.7617C18.907 37.961 18.986 38.1521 19.1266 38.2933C19.1957 38.3632 19.278 38.4186 19.3687 38.4565C19.4594 38.4943 19.5567 38.5138 19.6549 38.5138C19.7532 38.5138 19.8505 38.4943 19.9412 38.4565C20.0319 38.4186 20.1142 38.3632 20.1833 38.2933L33.0199 25.4733C33.1596 25.3323 33.2379 25.1418 33.2379 24.9433C33.2379 24.7448 33.1596 24.5544 33.0199 24.4133Z" fill="#FBFBFB"/>
<path d="M29.9999 2.90578e-06C24.8831 -0.00225165 19.8511 1.30749 15.3847 3.80413C10.9183 6.30076 7.16666 9.90089 4.48809 14.2606C1.80953 18.6203 0.293542 23.5941 0.0849417 28.7066C-0.123659 33.8192 0.982096 38.8999 3.29658 43.4633H14.1399C14.3185 43.4756 14.4858 43.5552 14.608 43.6861C14.7301 43.817 14.7981 43.9893 14.7981 44.1683C14.7981 44.3474 14.7301 44.5197 14.608 44.6506C14.4858 44.7814 14.3185 44.861 14.1399 44.8733H4.05992C6.68305 49.4275 10.459 53.2108 15.0082 55.8428C19.5573 58.4747 24.7192 59.8625 29.9748 59.8667C35.2305 59.8708 40.3945 58.4911 44.9478 55.8663C49.501 53.2415 53.283 49.4641 55.9132 44.914C58.5435 40.3639 59.9294 35.2015 59.9316 29.9459C59.9338 24.6902 58.5523 19.5267 55.9258 14.9744C53.2993 10.4221 49.5206 6.64155 44.9695 4.01293C40.4185 1.38432 35.2556 0.000282989 29.9999 2.90578e-06ZM39.1566 27.8733L24.0799 42.9367C23.9739 43.0393 23.841 43.1098 23.6966 43.14L16.1332 44.68C16.0365 44.6994 15.9369 44.6995 15.8401 44.6804C15.7433 44.6612 15.6512 44.6231 15.5691 44.5683C15.4871 44.5135 15.4166 44.4431 15.3619 44.361C15.3071 44.2789 15.269 44.1868 15.2499 44.09C15.2299 43.9933 15.2299 43.8934 15.2499 43.7967L16.7766 36.2333C16.806 36.0886 16.8766 35.9555 16.9799 35.85L32.0566 20.8C32.1986 20.6609 32.3895 20.5831 32.5882 20.5831C32.787 20.5831 32.9779 20.6609 33.1199 20.8L39.1532 26.8333C39.2862 26.9738 39.3602 27.1599 39.3602 27.3533C39.3602 27.5468 39.2862 27.7328 39.1532 27.8733H39.1566ZM44.4332 22.6033L41.9799 25.06C41.9108 25.1298 41.8285 25.1853 41.7378 25.2231C41.6471 25.261 41.5498 25.2805 41.4516 25.2805C41.3533 25.2805 41.256 25.261 41.1653 25.2231C41.0747 25.1853 40.9924 25.1298 40.9232 25.06L34.8699 19.0067C34.8001 18.9375 34.7446 18.8553 34.7068 18.7646C34.6689 18.6739 34.6495 18.5766 34.6495 18.4783C34.6495 18.3801 34.6689 18.2828 34.7068 18.1921C34.7446 18.1014 34.8001 18.0191 34.8699 17.95L37.3332 15.4967C37.473 15.3585 37.6617 15.2809 37.8582 15.2809C38.0548 15.2809 38.2435 15.3585 38.3832 15.4967L44.4232 21.5333C44.5654 21.6696 44.6477 21.8567 44.6521 22.0535C44.6565 22.2504 44.5826 22.4409 44.4466 22.5833L44.4332 22.6033Z" fill="#FBFBFB"/>
</g>
<defs>
<clipPath id="clip0">
<rect width="60" height="60" fill="white"/>
</clipPath>
</defs>
</svg>
